<?xml version="1.0" standalone="no"?>
<!DOCTYPE svg PUBLIC "-//W3C//DTD SVG 20010904//EN"
 "http://www.w3.org/TR/2001/REC-SVG-20010904/DTD/svg10.dtd">
<svg version="1.0" xmlns="http://www.w3.org/2000/svg"
 width="260.000000pt" height="260.000000pt" viewBox="0 0 260.000000 260.000000"
 preserveAspectRatio="xMidYMid meet">
<metadata>
Created by potrace 1.14, written by Peter Selinger 2001-2017
</metadata>
<g transform="translate(0.000000,260.000000) scale(0.100000,-0.100000)"
fill="#000000" stroke="none">
<path d="M1150 2593 c-75 -11 -189 -37 -239 -54 -31 -11 -63 -21 -71 -23 -65
-16 -253 -123 -340 -193 -121 -99 -237 -223 -225 -242 3 -6 0 -8 -8 -5 -7 2
-19 -5 -26 -18 -13 -25 -28 -50 -52 -88 -80 -123 -145 -299 -173 -470 -14 -84
-15 -346 -1 -400 3 -14 8 -36 11 -50 4 -21 14 -69 19 -90 9 -36 30 -97 37
-104 4 -6 8 -18 8 -28 0 -10 4 -18 8 -18 5 0 9 -6 9 -13 0 -21 77 -169 90
-174 7 -3 11 -9 8 -13 -13 -21 188 -255 208 -243 6 3 7 1 3 -5 -17 -28 315
-255 345 -236 5 3 9 1 9 -4 0 -5 15 -15 33 -22 17 -7 41 -16 52 -21 45 -19
103 -35 123 -34 12 1 22 -1 22 -5 0 -15 162 -35 290 -35 185 0 296 18 445 71
78 28 221 98 246 120 8 8 20 14 25 14 6 0 19 8 30 18 10 9 39 32 63 49 163
119 331 341 407 539 32 85 53 154 48 154 -3 0 0 8 5 18 5 10 12 38 16 62 4 25
10 65 15 88 8 47 5 308 -4 357 -4 17 -9 44 -12 60 -9 49 -44 169 -54 187 -6
10 -10 23 -10 30 0 36 -170 328 -191 328 -5 0 -9 5 -9 10 0 6 -10 21 -22 34
-13 12 -39 41 -59 63 -29 32 -97 91 -174 151 -25 20 -165 100 -208 121 -96 44
-207 79 -322 101 -58 12 -324 20 -375 13z m-260 -147 c0 -2 -7 -7 -16 -10 -8
-3 -12 -2 -9 4 6 10 25 14 25 6z"/>
</g>
</svg>
