<?xml version="1.0" standalone="no"?>
<!DOCTYPE svg PUBLIC "-//W3C//DTD SVG 20010904//EN"
 "http://www.w3.org/TR/2001/REC-SVG-20010904/DTD/svg10.dtd">
<svg version="1.0" xmlns="http://www.w3.org/2000/svg"
 width="700.000000pt" height="700.000000pt" viewBox="0 0 700.000000 700.000000"
 preserveAspectRatio="xMidYMid meet">
<metadata>
Created by potrace 1.14, written by Peter Selinger 2001-2017
</metadata>
<g transform="translate(0.000000,700.000000) scale(0.100000,-0.100000)"
fill="#000000" stroke="none">
<path d="M3269 6996 c-2 -2 -42 -7 -89 -10 -94 -7 -102 -8 -280 -37 -755 -124
-1476 -521 -2002 -1104 -263 -291 -490 -648 -628 -990 -18 -44 -38 -93 -45
-110 -56 -129 -150 -479 -179 -670 -35 -219 -41 -308 -41 -570 0 -249 6 -344
30 -512 93 -627 344 -1203 742 -1698 154 -192 411 -441 598 -580 22 -16 42
-32 45 -35 20 -20 235 -160 325 -212 337 -193 719 -337 1070 -402 60 -11 201
-35 240 -40 212 -28 706 -29 879 -1 11 2 42 6 67 9 164 21 393 74 589 138 881
286 1623 923 2038 1753 96 191 140 300 206 505 34 105 96 346 110 430 45 274
51 347 51 645 0 212 -6 328 -20 430 -16 111 -38 240 -51 300 -9 39 -17 77 -19
85 -55 262 -217 669 -377 943 -91 158 -248 379 -366 517 -78 90 -292 304 -382
381 -316 270 -700 494 -1086 632 -141 51 -322 104 -434 126 -136 28 -207 40
-300 52 -41 5 -91 12 -110 15 -40 6 -575 15 -581 10z"/>
</g>
</svg>
